<svg width="800" height="800" viewBox="0 0 800 800" fill="none" xmlns="http://www.w3.org/2000/svg">
<rect width="800" height="800" fill="#DEDEDE"/>
<g clip-path="url(#clip0_3_157)">
<path d="M465.918 533.081C463.679 533.079 461.475 532.512 459.513 531.433L277.272 431.766C274.159 430.059 271.851 427.187 270.853 423.781C269.855 420.374 270.25 416.711 271.949 413.595L348.856 272.971C349.7 271.428 350.839 270.067 352.209 268.964C353.579 267.862 355.152 267.04 356.839 266.546C358.527 266.052 360.295 265.895 362.043 266.084C363.791 266.273 365.484 266.805 367.027 267.648L549.268 367.315C552.38 369.022 554.689 371.893 555.687 375.3C556.684 378.706 556.29 382.37 554.59 385.486L477.684 526.11C476.844 527.656 475.706 529.019 474.336 530.122C472.965 531.225 471.39 532.045 469.701 532.535C468.472 532.896 467.199 533.08 465.918 533.081ZM460.614 529.419C463.195 530.831 466.232 531.159 469.055 530.332C471.879 529.505 474.258 527.59 475.67 525.009L552.577 384.385C553.985 381.803 554.312 378.767 553.485 375.945C552.658 373.122 550.746 370.743 548.167 369.329L365.926 269.662C363.344 268.25 360.308 267.922 357.485 268.749C354.661 269.576 352.282 271.491 350.87 274.072L273.963 414.696C272.555 417.278 272.228 420.313 273.055 423.136C273.882 425.959 275.794 428.338 278.373 429.752L460.614 529.419Z" fill="#EEEEEE"/>
<path d="M469.676 483.899C467.579 483.897 465.516 483.369 463.677 482.362L316.34 401.785C314.907 401.002 313.642 399.945 312.617 398.673C311.593 397.402 310.829 395.94 310.37 394.373C309.911 392.806 309.766 391.164 309.942 389.54C310.118 387.917 310.613 386.344 311.398 384.912L357.329 300.927C358.113 299.494 359.17 298.23 360.442 297.206C361.714 296.182 363.175 295.419 364.742 294.96C366.309 294.501 367.951 294.356 369.574 294.531C371.197 294.707 372.77 295.201 374.202 295.984L521.539 376.562C522.971 377.345 524.236 378.403 525.259 379.675C526.283 380.947 527.046 382.408 527.505 383.975C527.964 385.542 528.11 387.183 527.934 388.807C527.758 390.43 527.265 392.002 526.481 393.435L526.313 393.343L526.481 393.435L480.55 477.42C479.488 479.378 477.917 481.014 476.004 482.154C474.09 483.294 471.904 483.897 469.676 483.899V483.899Z" fill="#EEEEEE"/>
<path d="M465.103 533.044H257.388C254.092 533.04 250.932 531.729 248.602 529.398C246.271 527.068 244.96 523.908 244.956 520.612V360.331C244.96 357.035 246.271 353.875 248.602 351.544C250.932 349.214 254.092 347.903 257.388 347.899H465.103C468.399 347.903 471.559 349.214 473.89 351.544C476.22 353.875 477.531 357.035 477.535 360.331V520.612C477.531 523.908 476.22 527.068 473.89 529.398C471.559 531.729 468.399 533.04 465.103 533.044Z" fill="#EEEEEE"/>
<path d="M465.103 534H257.389C253.839 533.996 250.436 532.584 247.926 530.074C245.416 527.564 244.004 524.161 244 520.611V360.331C244.004 356.781 245.416 353.378 247.926 350.868C250.436 348.358 253.839 346.946 257.389 346.942H465.103C468.653 346.946 472.056 348.358 474.566 350.868C477.076 353.378 478.488 356.781 478.492 360.331V520.611C478.488 524.161 477.076 527.564 474.566 530.074C472.056 532.584 468.653 533.996 465.103 534ZM257.389 349.238C254.447 349.241 251.628 350.411 249.548 352.49C247.468 354.57 246.299 357.39 246.295 360.331V520.611C246.299 523.553 247.468 526.372 249.548 528.452C251.628 530.532 254.447 531.702 257.389 531.705H465.103C468.044 531.702 470.864 530.532 472.943 528.452C475.023 526.372 476.193 523.553 476.196 520.611V360.331C476.193 357.39 475.023 354.57 472.943 352.49C470.864 350.411 468.044 349.241 465.103 349.238H257.389Z" fill="#E1E1E1"/>
<path d="M393.57 400.607C391.157 400.605 388.777 401.163 386.616 402.238C384.455 403.312 382.574 404.873 381.119 406.799C379.557 406.127 377.853 405.853 376.159 406.002C374.466 406.151 372.836 406.719 371.416 407.653C369.996 408.588 368.83 409.861 368.023 411.357C367.216 412.854 366.794 414.527 366.793 416.227H409.191C409.191 414.176 408.787 412.145 408.002 410.249C407.217 408.354 406.066 406.632 404.616 405.182C403.165 403.731 401.443 402.581 399.548 401.796C397.653 401.011 395.622 400.607 393.57 400.607Z" fill="#E6E6E6"/>
<path d="M300.69 461.748C314.582 461.748 325.844 450.486 325.844 436.594C325.844 422.701 314.582 411.439 300.69 411.439C286.798 411.439 275.536 422.701 275.536 436.594C275.536 450.486 286.798 461.748 300.69 461.748Z" fill="#CACACA"/>
<path d="M448.027 488.433C447.104 488.651 446.159 488.76 445.211 488.758H277.28C275.212 488.762 273.177 488.239 271.366 487.24L271.814 486.597L290.55 459.617L318.314 419.646L318.72 419.061L323.088 412.772C323.382 412.349 323.774 412.003 324.23 411.765C324.686 411.526 325.194 411.401 325.709 411.401C326.224 411.401 326.731 411.526 327.187 411.765C327.644 412.003 328.035 412.349 328.329 412.772L342.842 433.662V433.666L351.38 445.961L371.762 475.301L402.674 431.176C402.968 430.755 403.36 430.411 403.815 430.174C404.271 429.937 404.777 429.813 405.29 429.813C405.804 429.813 406.31 429.937 406.765 430.174C407.221 430.411 407.612 430.755 407.907 431.176L427.737 459.479L428.877 461.105L448.027 488.433Z" fill="#8E8E8E"/>
<path d="M360.186 426.689C357.209 426.686 354.272 427.375 351.606 428.701C348.94 430.026 346.618 431.952 344.823 434.328C342.897 433.498 340.794 433.161 338.705 433.345C336.615 433.529 334.604 434.229 332.852 435.382C331.1 436.535 329.662 438.105 328.666 439.952C327.671 441.798 327.15 443.863 327.149 445.96H379.457C379.457 443.429 378.959 440.923 377.991 438.585C377.022 436.247 375.603 434.123 373.813 432.333C372.023 430.544 369.899 429.124 367.561 428.156C365.223 427.187 362.717 426.689 360.186 426.689V426.689Z" fill="#CCCCCC"/>
<path d="M445.211 489.141H277.28C275.622 489.142 273.98 488.817 272.448 488.183C270.915 487.549 269.523 486.619 268.351 485.447C267.178 484.274 266.248 482.882 265.614 481.35C264.981 479.818 264.655 478.175 264.657 476.517V380.793C264.66 377.446 265.992 374.237 268.358 371.871C270.725 369.504 273.933 368.173 277.28 368.169H445.211C448.558 368.173 451.767 369.504 454.133 371.871C456.5 374.237 457.831 377.446 457.835 380.793V476.517C457.837 478.175 457.511 479.818 456.878 481.35C456.244 482.883 455.314 484.275 454.142 485.448C452.969 486.62 451.577 487.55 450.044 488.184C448.512 488.817 446.87 489.143 445.211 489.141V489.141ZM277.28 368.934C274.136 368.938 271.122 370.188 268.899 372.411C266.676 374.635 265.425 377.649 265.422 380.793V476.517C265.42 478.075 265.726 479.618 266.321 481.057C266.917 482.496 267.79 483.804 268.892 484.906C269.993 486.007 271.301 486.881 272.74 487.476C274.18 488.071 275.722 488.377 277.28 488.376H445.211C446.769 488.378 448.312 488.072 449.751 487.477C451.191 486.881 452.499 486.008 453.601 484.906C454.702 483.805 455.575 482.497 456.171 481.057C456.766 479.618 457.072 478.075 457.07 476.517V380.793C457.066 377.649 455.816 374.635 453.593 372.411C451.369 370.188 448.355 368.938 445.211 368.934H277.28Z" fill="#3F3D56"/>
</g>
<defs>
<clipPath id="clip0_3_157">
<rect width="312.23" height="268" fill="white" transform="translate(244 266)"/>
</clipPath>
</defs>
</svg>
