<svg width="496" height="119" viewBox="0 0 496 119" fill="none" xmlns="http://www.w3.org/2000/svg">
<g clip-path="url(#clip0_1563_13221)">
<g clip-path="url(#clip1_1563_13221)">
<path fill-rule="evenodd" clip-rule="evenodd" d="M0 96.8609L36.9771 20.5629L60.0381 27.2384C64.914 12.6736 72.6359 -2.66553 91.2814 1.16402C96.0736 2.14756 100.008 4.11466 103.021 6.81417C105.574 9.09516 107.479 11.8993 108.65 15.0383C109.885 15.8963 111.036 16.8798 112.082 18.0308C116.77 23.095 118.779 28.1801 118.611 33.3908C118.507 36.7181 117.523 40.0245 115.807 43.3937L134.202 48.7299L126.375 111.719H48.5076L0 96.8609ZM58.2175 36.0485C56.3341 36.0485 54.8065 37.5761 54.8065 39.4804C54.8065 41.3638 56.3341 42.9124 58.2175 42.9124C60.1009 42.9124 61.6495 41.3847 61.6495 39.4804C61.6285 37.5761 60.1009 36.0485 58.2175 36.0485ZM100.74 47.4116C98.8568 47.4116 97.3292 48.9392 97.3292 50.8435C97.3292 52.7269 98.8568 54.2755 100.74 54.2755C102.624 54.2755 104.172 52.7478 104.172 50.8435C104.172 48.9392 102.644 47.4116 100.74 47.4116ZM63.7003 28.3057L68.9947 29.8333C72.322 24.7482 75.7749 19.9142 80.1066 16.3985C85.3592 12.1086 91.6999 9.86944 100.238 11.5854C101.117 11.7528 101.975 11.983 102.812 12.2341C102.121 11.3134 101.347 10.4345 100.468 9.66018C97.936 7.40012 94.6087 5.74692 90.5071 4.90986C75.0215 1.72903 68.1158 15.2057 63.7003 28.3057ZM109.927 21.3372C110.115 25.3341 109.341 29.7915 108.106 34.1651C107.499 36.3415 106.788 38.4969 106.014 40.5686L112.061 42.3264C113.756 39.2293 114.719 36.2159 114.803 33.2862C114.928 29.3102 113.422 25.355 109.927 21.3372ZM102.352 39.5014C103.126 37.4506 103.837 35.2951 104.444 33.1397C105.93 27.8453 106.725 22.4672 105.679 18.3656C105.616 18.0936 105.532 17.8006 105.449 17.5285C105.281 17.4239 105.114 17.3402 104.946 17.2565C103.293 16.3567 101.473 15.7289 99.4846 15.3103C92.2649 13.8664 86.9078 15.7498 82.4923 19.3491C78.872 22.3207 75.7749 26.4851 72.8242 30.9424L102.352 39.5014Z" fill="white"/>
<path fill-rule="evenodd" clip-rule="evenodd" d="M97.8321 73.967L113.883 78.3616L112.857 82.0865L100.783 78.7801L99.8201 82.2539L105.512 83.8234L105.826 82.6515L107.877 84.7233L109.907 86.774L107.103 87.5065L104.298 88.2389L104.612 87.0879L98.9203 85.5185L97.9786 88.9713L110.053 92.2777L109.049 95.9608L92.998 91.5453L97.8321 73.967Z" fill="#E60012"/>
<path fill-rule="evenodd" clip-rule="evenodd" d="M66.9266 65.4272L72.9953 67.0804L76.2807 87.0025L73.3301 86.1863L71.7606 85.7469L63.4737 83.4659L66.0895 80.2223L71.07 81.5825C70.3585 77.3135 70.505 78.1924 69.1238 69.6753C64.1852 75.5138 62.6366 77.2716 58.6815 82.1475L54.0986 80.8919L66.9266 65.4272Z" fill="#E60012"/>
<path fill-rule="evenodd" clip-rule="evenodd" d="M82.2619 69.7585L86.217 70.8467L82.513 84.3443L92.9344 87.2113L91.8462 91.1454L77.4697 87.2113L82.2619 69.7585Z" fill="#E60012"/>
<path fill-rule="evenodd" clip-rule="evenodd" d="M56.9836 68.4433L53.0075 67.3551C53.0494 67.2086 53.0912 67.0203 53.154 66.7901C53.1959 66.5599 53.1749 66.3088 53.0494 66.0368C52.9238 65.7647 52.7145 65.5345 52.4216 65.3252C52.1286 65.116 51.6682 64.9276 51.0195 64.7602L46.1227 63.4209C45.4531 63.2326 44.9508 63.1698 44.5951 63.2326C44.2602 63.2954 43.9673 63.4419 43.7162 63.693C43.465 63.9441 43.3395 64.3208 43.3395 64.8439C43.3395 65.3671 43.4232 65.7647 43.6115 66.0368C43.7999 66.3088 44.5951 66.6436 45.9971 67.0412L50.8102 68.3596C51.2497 68.4851 51.9193 68.6735 52.7773 68.9665C53.6562 69.2385 54.3468 69.5733 54.87 69.95C55.3931 70.3267 55.7489 70.808 55.9582 71.4149C56.1674 72.0008 56.1883 72.9006 56.0419 74.0725C55.8745 75.2444 55.5606 76.3535 55.0583 77.4208C54.7863 78.0067 54.4933 78.4462 54.2213 78.7391C53.9492 79.0321 53.6562 79.2832 53.3423 79.4716C53.0284 79.639 52.5681 79.7645 51.9821 79.8482C51.3962 79.911 50.601 79.8064 49.5756 79.5343L41.6444 77.358C40.347 77.0022 39.3844 76.6465 38.7984 76.2698C38.1916 75.9141 37.794 75.6211 37.5847 75.3909C37.3754 75.1607 37.208 74.9096 37.1034 74.6166C36.9778 74.3236 36.915 73.9679 36.915 73.5075C36.915 73.0471 36.936 72.7123 36.9987 72.503L37.5219 70.2639L41.5189 71.4149C41.4142 71.9589 41.3724 72.3356 41.4352 72.5449C41.477 72.7542 41.5607 72.9425 41.6654 73.0681C41.77 73.2145 41.9583 73.361 42.2304 73.5075C42.5024 73.654 42.9837 73.8214 43.6534 74.0097L48.4665 75.3281L49.6593 75.5374C50.3917 75.6839 50.8939 75.7048 51.166 75.6002C51.438 75.4955 51.6473 74.9514 51.7729 73.926C51.8147 73.5494 51.7938 73.2145 51.6682 72.9216C51.5636 72.6286 51.2915 72.4193 50.8521 72.2938L43.2767 70.222C42.1885 69.9291 41.5398 69.7407 41.3096 69.678C41.0794 69.6152 40.8074 69.5106 40.4725 69.3431C40.1377 69.1967 39.8448 68.9665 39.5727 68.6944C39.3007 68.4224 39.0914 68.1085 38.924 67.7527C38.7566 67.397 38.6729 66.9366 38.6729 66.3925C38.6519 65.8484 38.7356 65.2206 38.924 64.551L39.5518 62.2491C39.6773 61.7887 39.8657 61.3911 40.1377 61.0353C40.3888 60.6796 40.6609 60.3866 40.9539 60.1355C41.2468 59.9053 41.6235 59.7169 42.0839 59.6123C42.5443 59.5077 43.2139 59.5077 44.0928 59.5914C44.9717 59.696 46.039 59.9053 47.2737 60.2401L53.4051 61.9142C54.0538 62.1026 54.6816 62.3118 55.2676 62.563C55.8535 62.8141 56.293 63.0861 56.586 63.3582C56.8789 63.6302 57.151 64.0069 57.3602 64.5091C57.5904 65.0113 57.6114 65.5764 57.423 66.246L56.9836 68.4433Z" fill="#E60012"/>
<path fill-rule="evenodd" clip-rule="evenodd" d="M148.724 59.6687H179.821C181.662 59.6687 183.357 60.0035 184.906 60.6732C186.475 61.3428 187.626 62.159 188.401 63.1425C189.154 64.126 189.845 65.5072 190.41 67.3069C190.996 69.0856 191.289 70.6133 191.289 71.8479V84.6549C191.289 86.9778 191.037 89.0704 190.535 90.9329C190.033 92.7954 189.405 94.2184 188.652 95.16C187.919 96.1017 186.936 96.8969 185.743 97.5247C184.55 98.1525 182.625 98.4664 179.988 98.4664H148.724V77.3516H157.45V89.6773H176.996C178.251 89.6773 179.256 89.3216 179.988 88.61C180.721 87.8985 181.202 87.3126 181.39 86.8313C181.6 86.35 181.683 85.0316 181.683 82.8553V77.0586C181.683 75.1962 181.641 73.7522 181.537 72.7687C181.453 71.7642 181.056 70.8016 180.386 69.8808C179.716 68.9601 178.586 68.4997 176.975 68.4997H168.772H157.429H148.703V59.6687H148.724Z" fill="white"/>
<path fill-rule="evenodd" clip-rule="evenodd" d="M196.561 59.7029H231.843V67.927H205.308V75.5652H217.822V72.9912L223.137 76.0674L228.473 79.1436L223.137 82.2198L217.822 85.296V82.743H205.308V90.3183H231.843V98.4169H196.561V59.7029Z" fill="white"/>
<path fill-rule="evenodd" clip-rule="evenodd" d="M254.715 59.3074H268.045L285.937 98.1888H279.429H275.976H257.749L261.265 90.0902H272.23C268.38 81.7406 269.175 83.4775 261.558 66.8409C254.736 81.5732 252.559 86.0305 247.181 98.1888H237.095L254.715 59.3074Z" fill="white"/>
<path fill-rule="evenodd" clip-rule="evenodd" d="M291.213 59.9546H299.939V89.6074H322.854V98.2919H291.213V59.9546Z" fill="white"/>
<path fill-rule="evenodd" clip-rule="evenodd" d="M367.197 71.7578H358.45C358.45 71.4229 358.45 71.0253 358.408 70.5231C358.387 70.0209 358.157 69.5395 357.78 69.0582C357.382 68.5769 356.817 68.2003 356.085 67.9491C355.352 67.698 354.306 67.5725 352.904 67.5725H342.148C340.662 67.5725 339.595 67.7189 338.946 68.0538C338.297 68.3677 337.774 68.849 337.397 69.4977C337.021 70.1464 336.979 71.0044 337.272 72.0717C337.565 73.1389 337.983 73.8923 338.507 74.3526C339.03 74.813 340.85 75.0432 343.947 75.0432H354.515C355.499 75.0432 356.964 75.0851 358.889 75.1688C360.835 75.2525 362.447 75.5245 363.702 76.0058C364.979 76.4871 366.004 77.2824 366.757 78.3705C367.532 79.4796 368.076 81.2584 368.39 83.7486C368.703 86.2389 368.662 88.7082 368.264 91.1566C368.013 92.4959 367.699 93.5632 367.301 94.3374C366.925 95.1117 366.443 95.7604 365.899 96.3045C365.334 96.8486 364.476 97.3509 363.325 97.8322C362.174 98.3135 360.479 98.5437 358.24 98.5437H340.809C337.942 98.5437 335.786 98.3344 334.363 97.9368C332.94 97.5392 331.936 97.1625 331.392 96.8277C330.848 96.4719 330.366 96.0534 329.969 95.5302C329.571 95.028 329.236 94.2956 328.964 93.3539C328.713 92.4122 328.567 91.7216 328.567 91.2612L328.378 86.4063L337.209 86.5319C337.293 87.7037 337.439 88.499 337.67 88.8966C337.9 89.2942 338.151 89.629 338.423 89.8592C338.695 90.1103 339.155 90.2777 339.825 90.4242C340.474 90.5707 341.541 90.6335 343.027 90.6335H353.595L356.148 90.3823C357.738 90.2568 358.784 90.0266 359.266 89.6708C359.747 89.3151 359.873 88.0595 359.6 85.925C359.475 85.1298 359.224 84.4601 358.847 83.937C358.45 83.3929 357.78 83.1208 356.838 83.1208H340.202C337.837 83.1208 336.393 83.1208 335.891 83.1208C335.389 83.1208 334.761 83.0581 334.007 82.9116C333.254 82.786 332.522 82.514 331.81 82.0954C331.099 81.6769 330.471 81.1538 329.969 80.526C329.445 79.8982 329.006 78.9983 328.671 77.8892C328.336 76.7592 328.169 75.4617 328.169 73.976V68.9118C328.169 67.8864 328.336 66.9447 328.671 66.0867C329.006 65.2287 329.404 64.4544 329.864 63.7848C330.324 63.136 330.994 62.571 331.873 62.0897C332.752 61.6084 334.112 61.2317 335.975 60.9178C337.816 60.6249 340.118 60.4574 342.838 60.4365H356.336C357.78 60.4365 359.161 60.5412 360.521 60.7295C361.881 60.9388 362.928 61.2317 363.681 61.6084C364.434 61.9851 365.188 62.6129 365.92 63.5127C366.653 64.3916 367.029 65.5635 367.029 67.0284L367.197 71.7578Z" fill="white"/>
<path fill-rule="evenodd" clip-rule="evenodd" d="M373.891 59.9567H382.617V69.0597V74.3541V83.0805V86.5543L402.33 59.9358H414.3L386.342 98.3359H382.617H373.891V59.9567V59.9567ZM397.286 91.5348L402.33 98.3568H414.3L403.313 83.2688L397.286 91.5348Z" fill="white"/>
<path fill-rule="evenodd" clip-rule="evenodd" d="M419.59 82.7402V71.9002C419.59 70.4982 419.82 68.9705 420.28 67.3173C420.741 65.6432 421.306 64.3248 421.975 63.3204C422.645 62.3159 423.65 61.4161 424.947 60.579C426.265 59.7419 428.128 59.3443 430.513 59.3443H450.373C453.407 59.3443 455.583 59.8047 456.923 60.7464C458.241 61.6881 459.246 62.6507 459.915 63.6761C460.585 64.7015 461.129 65.978 461.527 67.4847C461.924 68.9915 462.133 70.8539 462.133 73.0721V74.1394V74.1812V74.2231V78.1154V82.5727C462.133 84.4143 462.259 85.7327 462.552 86.5279C462.824 87.3231 463.18 87.909 463.64 88.2438C464.08 88.5996 464.666 88.8507 465.377 88.9972C466.089 89.1437 467.219 89.2274 468.767 89.2274H480.591C481.198 89.2274 482.097 89.1646 483.269 89.0181C484.462 88.8716 485.236 88.6414 485.592 88.3485C485.969 88.0346 486.325 87.3858 486.701 86.4023C487.057 85.4188 487.245 84.2259 487.245 82.8448V74.2022C487.245 73.093 487.099 72.1514 486.785 71.3771C486.471 70.6028 486.094 69.975 485.613 69.4937C485.132 69.0124 484.378 68.6357 483.332 68.3637C482.265 68.0916 481.26 67.9451 480.298 67.9451H470.378C470.337 67.7777 470.295 67.6103 470.253 67.4429C469.855 65.9362 469.311 64.6806 468.642 63.6343C467.972 62.6089 466.967 61.6463 465.649 60.7046C464.77 60.0977 463.536 59.6792 461.945 59.4699C462.678 59.3653 463.473 59.3025 464.352 59.3025H484.211C487.245 59.3025 489.422 59.7629 490.761 60.7046C492.079 61.6463 493.084 62.6089 493.753 63.6343C494.423 64.6597 494.967 65.9362 495.365 67.4429C495.762 68.9496 495.972 70.8121 495.972 73.0303V83.1587C495.972 85.0002 495.846 86.9464 495.616 88.9763C495.365 91.0271 494.883 92.5128 494.13 93.4755C493.398 94.4171 492.623 95.1914 491.849 95.7564C491.075 96.3215 490.175 96.8237 489.17 97.2422C488.166 97.6608 486.534 97.8909 484.295 97.8909H464.519C463.243 97.8909 461.82 97.598 460.292 97.012C458.743 96.4261 457.299 95.4216 455.981 93.9777C454.642 92.5338 453.972 90.9224 453.951 89.1227L453.407 82.6983V78.0945V74.2022V74.1603C453.407 73.0721 453.24 72.1514 452.947 71.3771C452.633 70.6028 452.256 69.975 451.775 69.4937C451.294 69.0124 450.54 68.6357 449.494 68.3637C448.427 68.0916 447.422 67.9451 446.46 67.9451H434.783C433.464 68.0079 432.418 68.1335 431.623 68.3427C430.848 68.5729 430.221 68.9287 429.718 69.4518C429.237 69.975 428.86 70.6237 428.63 71.3771C428.4 72.1304 428.295 73.0303 428.295 74.0766V82.5518C428.295 84.3934 428.421 85.7117 428.714 86.5069C428.986 87.3021 429.342 87.8881 429.802 88.2229C430.241 88.5787 430.827 88.8298 431.539 88.9763C432.25 89.1227 433.38 89.2064 434.929 89.2064H445.455C445.894 90.7341 446.439 91.9478 447.066 92.8895C447.736 93.894 448.74 94.7938 450.038 95.6309C451.356 96.4679 453.219 96.8655 455.604 96.8655H456.128C455.876 96.9911 455.604 97.1167 455.332 97.2213C454.328 97.6607 452.696 97.87 450.456 97.87H430.681C429.404 97.87 427.981 97.577 426.454 96.9911C424.905 96.4052 423.461 95.4007 422.143 93.9568C420.804 92.5128 420.134 90.9015 420.113 89.1018L419.59 82.7402Z" fill="white"/>
</g>
</g>
<defs>
<clipPath id="clip0_1563_13221">
<rect width="496" height="117.474" fill="white" transform="translate(0 0.578613)"/>
</clipPath>
<clipPath id="clip1_1563_13221">
<rect width="496" height="111.141" fill="white" transform="translate(0 0.578613)"/>
</clipPath>
</defs>
</svg>
