<svg width="135" height="112" viewBox="0 0 135 112" fill="none" xmlns="http://www.w3.org/2000/svg">
<path fill-rule="evenodd" clip-rule="evenodd" d="M0 96.8609L36.9771 20.5629L60.0381 27.2384C64.914 12.6736 72.6359 -2.66553 91.2814 1.16402C96.0736 2.14756 100.008 4.11466 103.021 6.81417C105.574 9.09516 107.479 11.8993 108.65 15.0383C109.885 15.8963 111.036 16.8798 112.082 18.0308C116.77 23.095 118.779 28.1801 118.611 33.3908C118.507 36.7181 117.523 40.0245 115.807 43.3937L134.202 48.7299L126.375 111.719H48.5076L0 96.8609ZM58.2175 36.0485C56.3341 36.0485 54.8065 37.5761 54.8065 39.4804C54.8065 41.3638 56.3341 42.9124 58.2175 42.9124C60.1009 42.9124 61.6495 41.3847 61.6495 39.4804C61.6285 37.5761 60.1009 36.0485 58.2175 36.0485ZM100.74 47.4116C98.8568 47.4116 97.3292 48.9392 97.3292 50.8435C97.3292 52.7269 98.8568 54.2755 100.74 54.2755C102.624 54.2755 104.172 52.7478 104.172 50.8435C104.172 48.9392 102.644 47.4116 100.74 47.4116ZM63.7003 28.3057L68.9947 29.8333C72.322 24.7482 75.7749 19.9142 80.1066 16.3985C85.3592 12.1086 91.6999 9.86944 100.238 11.5854C101.117 11.7528 101.975 11.983 102.812 12.2341C102.121 11.3134 101.347 10.4345 100.468 9.66018C97.936 7.40012 94.6087 5.74692 90.5071 4.90986C75.0215 1.72903 68.1158 15.2057 63.7003 28.3057ZM109.927 21.3372C110.115 25.3341 109.341 29.7915 108.106 34.1651C107.499 36.3415 106.788 38.4969 106.014 40.5686L112.061 42.3264C113.756 39.2293 114.719 36.2159 114.803 33.2862C114.928 29.3102 113.422 25.355 109.927 21.3372ZM102.352 39.5014C103.126 37.4506 103.837 35.2951 104.444 33.1397C105.93 27.8453 106.725 22.4672 105.679 18.3656C105.616 18.0936 105.532 17.8006 105.449 17.5285C105.281 17.4239 105.114 17.3402 104.946 17.2565C103.293 16.3567 101.473 15.7289 99.4846 15.3103C92.2649 13.8664 86.9078 15.7498 82.4923 19.3491C78.872 22.3207 75.7749 26.4851 72.8242 30.9424L102.352 39.5014Z" fill="white"/>
<path fill-rule="evenodd" clip-rule="evenodd" d="M97.8321 73.967L113.883 78.3616L112.857 82.0865L100.783 78.7801L99.8201 82.2539L105.512 83.8234L105.826 82.6515L107.877 84.7233L109.907 86.774L107.103 87.5065L104.298 88.2389L104.612 87.0879L98.9203 85.5185L97.9786 88.9713L110.053 92.2777L109.049 95.9608L92.998 91.5453L97.8321 73.967Z" fill="#E60012"/>
<path fill-rule="evenodd" clip-rule="evenodd" d="M66.9266 65.4272L72.9953 67.0804L76.2807 87.0025L73.3301 86.1863L71.7606 85.7469L63.4737 83.4659L66.0895 80.2223L71.07 81.5825C70.3585 77.3135 70.505 78.1924 69.1238 69.6753C64.1852 75.5138 62.6366 77.2716 58.6815 82.1475L54.0986 80.8919L66.9266 65.4272Z" fill="#E60012"/>
<path fill-rule="evenodd" clip-rule="evenodd" d="M82.2619 69.7585L86.217 70.8467L82.513 84.3443L92.9344 87.2113L91.8462 91.1454L77.4697 87.2113L82.2619 69.7585Z" fill="#E60012"/>
<path fill-rule="evenodd" clip-rule="evenodd" d="M56.9836 68.4433L53.0075 67.3551C53.0494 67.2086 53.0912 67.0203 53.154 66.7901C53.1959 66.5599 53.1749 66.3088 53.0494 66.0368C52.9238 65.7647 52.7145 65.5345 52.4216 65.3252C52.1286 65.116 51.6682 64.9276 51.0195 64.7602L46.1227 63.4209C45.4531 63.2326 44.9508 63.1698 44.5951 63.2326C44.2602 63.2954 43.9673 63.4419 43.7162 63.693C43.465 63.9441 43.3395 64.3208 43.3395 64.8439C43.3395 65.3671 43.4232 65.7647 43.6115 66.0368C43.7999 66.3088 44.5951 66.6436 45.9971 67.0412L50.8102 68.3596C51.2497 68.4851 51.9193 68.6735 52.7773 68.9665C53.6562 69.2385 54.3468 69.5733 54.87 69.95C55.3931 70.3267 55.7489 70.808 55.9582 71.4149C56.1674 72.0008 56.1883 72.9006 56.0419 74.0725C55.8745 75.2444 55.5606 76.3535 55.0583 77.4208C54.7863 78.0067 54.4933 78.4462 54.2213 78.7391C53.9492 79.0321 53.6562 79.2832 53.3423 79.4716C53.0284 79.639 52.5681 79.7645 51.9821 79.8482C51.3962 79.911 50.601 79.8064 49.5756 79.5343L41.6444 77.358C40.347 77.0022 39.3844 76.6465 38.7984 76.2698C38.1916 75.9141 37.794 75.6211 37.5847 75.3909C37.3754 75.1607 37.208 74.9096 37.1034 74.6166C36.9778 74.3236 36.915 73.9679 36.915 73.5075C36.915 73.0471 36.936 72.7123 36.9987 72.503L37.5219 70.2639L41.5189 71.4149C41.4142 71.9589 41.3724 72.3356 41.4352 72.5449C41.477 72.7542 41.5607 72.9425 41.6654 73.0681C41.77 73.2145 41.9583 73.361 42.2304 73.5075C42.5024 73.654 42.9837 73.8214 43.6534 74.0097L48.4665 75.3281L49.6593 75.5374C50.3917 75.6839 50.8939 75.7048 51.166 75.6002C51.438 75.4955 51.6473 74.9514 51.7729 73.926C51.8147 73.5494 51.7938 73.2145 51.6682 72.9216C51.5636 72.6286 51.2915 72.4193 50.8521 72.2938L43.2767 70.222C42.1885 69.9291 41.5398 69.7407 41.3096 69.678C41.0794 69.6152 40.8074 69.5106 40.4725 69.3431C40.1377 69.1967 39.8448 68.9665 39.5727 68.6944C39.3007 68.4224 39.0914 68.1085 38.924 67.7527C38.7566 67.397 38.6729 66.9366 38.6729 66.3925C38.6519 65.8484 38.7356 65.2206 38.924 64.551L39.5518 62.2491C39.6773 61.7887 39.8657 61.3911 40.1377 61.0353C40.3888 60.6796 40.6609 60.3866 40.9539 60.1355C41.2468 59.9053 41.6235 59.7169 42.0839 59.6123C42.5443 59.5077 43.2139 59.5077 44.0928 59.5914C44.9717 59.696 46.039 59.9053 47.2737 60.2401L53.4051 61.9142C54.0538 62.1026 54.6816 62.3118 55.2676 62.563C55.8535 62.8141 56.293 63.0861 56.586 63.3582C56.8789 63.6302 57.151 64.0069 57.3602 64.5091C57.5904 65.0113 57.6114 65.5764 57.423 66.246L56.9836 68.4433Z" fill="#E60012"/>
</svg>
