<svg width="300" height="300" viewBox="0 0 300 300" fill="none" xmlns="http://www.w3.org/2000/svg">
<rect width="300" height="300" fill="#DEDEDE"/>
<path opacity="0.2" d="M100.552 166V132.4H104.584V162.784H120.232V166H100.552ZM135.348 166.576C133.108 166.576 131.092 166.064 129.3 165.04C127.508 164.016 126.084 162.576 125.028 160.72C124.004 158.832 123.492 156.624 123.492 154.096C123.492 151.568 124.02 149.376 125.076 147.52C126.132 145.632 127.556 144.176 129.348 143.152C131.172 142.128 133.204 141.616 135.444 141.616C137.684 141.616 139.7 142.128 141.492 143.152C143.284 144.176 144.692 145.632 145.716 147.52C146.772 149.376 147.3 151.568 147.3 154.096C147.3 156.624 146.772 158.832 145.716 160.72C144.66 162.576 143.22 164.016 141.396 165.04C139.604 166.064 137.588 166.576 135.348 166.576ZM135.348 163.12C136.724 163.12 138.004 162.784 139.188 162.112C140.372 161.44 141.332 160.432 142.068 159.088C142.804 157.744 143.172 156.08 143.172 154.096C143.172 152.112 142.804 150.448 142.068 149.104C141.364 147.76 140.42 146.752 139.236 146.08C138.052 145.408 136.788 145.072 135.444 145.072C134.068 145.072 132.788 145.408 131.604 146.08C130.42 146.752 129.46 147.76 128.724 149.104C127.988 150.448 127.62 152.112 127.62 154.096C127.62 156.08 127.988 157.744 128.724 159.088C129.46 160.432 130.404 161.44 131.556 162.112C132.74 162.784 134.004 163.12 135.348 163.12ZM161.283 158.512C159.939 158.512 158.707 158.336 157.587 157.984L155.187 160.24C155.539 160.496 155.971 160.72 156.483 160.912C157.027 161.072 157.795 161.232 158.787 161.392C159.779 161.52 161.171 161.664 162.963 161.824C166.163 162.048 168.451 162.784 169.827 164.032C171.203 165.28 171.891 166.912 171.891 168.928C171.891 170.304 171.507 171.616 170.739 172.864C170.003 174.112 168.851 175.136 167.283 175.936C165.747 176.736 163.763 177.136 161.331 177.136C159.187 177.136 157.283 176.848 155.618 176.272C153.955 175.728 152.659 174.88 151.73 173.728C150.803 172.608 150.339 171.184 150.339 169.456C150.339 168.56 150.579 167.584 151.059 166.528C151.539 165.504 152.435 164.528 153.747 163.6C153.043 163.312 152.435 163.008 151.923 162.688C151.443 162.336 150.995 161.952 150.579 161.536V160.432L154.659 156.4C152.771 154.8 151.827 152.688 151.827 150.064C151.827 148.496 152.195 147.072 152.931 145.792C153.667 144.512 154.739 143.504 156.147 142.768C157.555 142 159.267 141.616 161.283 141.616C162.659 141.616 163.907 141.808 165.027 142.192H173.811V145.216L169.347 145.408C170.275 146.752 170.739 148.304 170.739 150.064C170.739 151.632 170.355 153.056 169.587 154.336C168.851 155.616 167.779 156.64 166.371 157.408C164.995 158.144 163.299 158.512 161.283 158.512ZM161.283 155.2C162.979 155.2 164.323 154.768 165.315 153.904C166.339 153.008 166.851 151.728 166.851 150.064C166.851 148.432 166.339 147.184 165.315 146.32C164.323 145.424 162.979 144.976 161.283 144.976C159.555 144.976 158.179 145.424 157.155 146.32C156.163 147.184 155.667 148.432 155.667 150.064C155.667 151.728 156.163 153.008 157.155 153.904C158.179 154.768 159.555 155.2 161.283 155.2ZM154.275 169.072C154.275 170.672 154.947 171.856 156.291 172.624C157.635 173.424 159.315 173.824 161.331 173.824C163.315 173.824 164.899 173.392 166.083 172.528C167.299 171.664 167.907 170.512 167.907 169.072C167.907 168.048 167.491 167.152 166.659 166.384C165.827 165.648 164.291 165.216 162.051 165.088C160.291 164.96 158.771 164.8 157.491 164.608C156.179 165.312 155.315 166.064 154.898 166.864C154.483 167.696 154.275 168.432 154.275 169.072ZM188.269 166.576C186.029 166.576 184.013 166.064 182.221 165.04C180.429 164.016 179.005 162.576 177.949 160.72C176.925 158.832 176.413 156.624 176.413 154.096C176.413 151.568 176.941 149.376 177.997 147.52C179.053 145.632 180.477 144.176 182.269 143.152C184.093 142.128 186.125 141.616 188.365 141.616C190.605 141.616 192.621 142.128 194.413 143.152C196.205 144.176 197.613 145.632 198.637 147.52C199.693 149.376 200.221 151.568 200.221 154.096C200.221 156.624 199.693 158.832 198.637 160.72C197.581 162.576 196.141 164.016 194.317 165.04C192.525 166.064 190.509 166.576 188.269 166.576ZM188.269 163.12C189.645 163.12 190.925 162.784 192.109 162.112C193.293 161.44 194.253 160.432 194.989 159.088C195.725 157.744 196.093 156.08 196.093 154.096C196.093 152.112 195.725 150.448 194.989 149.104C194.285 147.76 193.341 146.752 192.157 146.08C190.973 145.408 189.709 145.072 188.365 145.072C186.989 145.072 185.709 145.408 184.525 146.08C183.341 146.752 182.381 147.76 181.645 149.104C180.909 150.448 180.541 152.112 180.541 154.096C180.541 156.08 180.909 157.744 181.645 159.088C182.381 160.432 183.325 161.44 184.477 162.112C185.661 162.784 186.925 163.12 188.269 163.12Z" fill="black"/>
</svg>
